<svg width="32" height="32" viewBox="0 0 32 32" fill="none" xmlns="http://www.w3.org/2000/svg">
<rect width="32" height="32" fill="#07070E"/>
<path d="M3.54883 21.0293C3.1875 21.0293 2.9043 20.9365 2.69922 20.751C2.49414 20.5557 2.3916 20.3262 2.3916 20.0625C2.3916 19.7988 2.49414 19.5742 2.69922 19.3887C2.9043 19.1934 3.1875 19.0957 3.54883 19.0957H5.95117C6.3125 19.0957 6.5957 19.1934 6.80078 19.3887C7.00586 19.5742 7.1084 19.7988 7.1084 20.0625C7.1084 20.3262 7.00586 20.5557 6.80078 20.751C6.5957 20.9365 6.3125 21.0293 5.95117 21.0293H3.54883ZM3.54883 19.1543C3.1875 19.1543 2.9043 19.0615 2.69922 18.876C2.49414 18.6807 2.3916 18.4512 2.3916 18.1875C2.3916 17.9238 2.49414 17.6992 2.69922 17.5137C2.9043 17.3184 3.1875 17.2207 3.54883 17.2207H5.95117C6.3125 17.2207 6.5957 17.3184 6.80078 17.5137C7.00586 17.6992 7.1084 17.9238 7.1084 18.1875C7.1084 18.4512 7.00586 18.6807 6.80078 18.876C6.5957 19.0615 6.3125 19.1543 5.95117 19.1543H3.54883ZM3.54883 17.2793C3.1875 17.2793 2.9043 17.1865 2.69922 17.001C2.49414 16.8057 2.3916 16.5762 2.3916 16.3125C2.3916 16.0488 2.49414 15.8242 2.69922 15.6387C2.9043 15.4434 3.1875 15.3457 3.54883 15.3457H5.95117C6.3125 15.3457 6.5957 15.4434 6.80078 15.6387C7.00586 15.8242 7.1084 16.0488 7.1084 16.3125C7.1084 16.5762 7.00586 16.8057 6.80078 17.001C6.5957 17.1865 6.3125 17.2793 5.95117 17.2793H3.54883ZM3.54883 15.4043C3.1875 15.4043 2.9043 15.3115 2.69922 15.126C2.49414 14.9307 2.3916 14.7012 2.3916 14.4375C2.3916 14.1738 2.49414 13.9492 2.69922 13.7637C2.9043 13.5684 3.1875 13.4707 3.54883 13.4707H5.95117C6.3125 13.4707 6.5957 13.5684 6.80078 13.7637C7.00586 13.9492 7.1084 14.1738 7.1084 14.4375C7.1084 14.7012 7.00586 14.9307 6.80078 15.126C6.5957 15.3115 6.3125 15.4043 5.95117 15.4043H3.54883ZM11.0488 15.4043C10.6875 15.4043 10.4043 15.3115 10.1992 15.126C9.99414 14.9307 9.8916 14.7012 9.8916 14.4375C9.8916 14.1738 9.99414 13.9492 10.1992 13.7637C10.4043 13.5684 10.6875 13.4707 11.0488 13.4707H13.4512C13.8125 13.4707 14.0957 13.5684 14.3008 13.7637C14.5059 13.9492 14.6084 14.1738 14.6084 14.4375C14.6084 14.7012 14.5059 14.9307 14.3008 15.126C14.0957 15.3115 13.8125 15.4043 13.4512 15.4043H11.0488ZM3.54883 13.5293C3.1875 13.5293 2.9043 13.4365 2.69922 13.251C2.49414 13.0557 2.3916 12.8262 2.3916 12.5625C2.3916 12.2988 2.49414 12.0742 2.69922 11.8887C2.9043 11.6934 3.1875 11.5957 3.54883 11.5957H11.5762C11.9375 11.5957 12.2207 11.6934 12.4258 11.8887C12.6309 12.0742 12.7334 12.2988 12.7334 12.5625C12.7334 12.8262 12.6309 13.0557 12.4258 13.251C12.2207 13.4365 11.9375 13.5293 11.5762 13.5293H3.54883ZM20.4238 21.0293C20.0625 21.0293 19.7793 20.9365 19.5742 20.751C19.3691 20.5557 19.2666 20.3262 19.2666 20.0625C19.2666 19.7988 19.3691 19.5742 19.5742 19.3887C19.7793 19.1934 20.0625 19.0957 20.4238 19.0957H22.8262C23.1875 19.0957 23.4707 19.1934 23.6758 19.3887C23.8809 19.5742 23.9834 19.7988 23.9834 20.0625C23.9834 20.3262 23.8809 20.5557 23.6758 20.751C23.4707 20.9365 23.1875 21.0293 22.8262 21.0293H20.4238ZM26.0488 21.0293C25.6875 21.0293 25.4043 20.9365 25.1992 20.751C24.9941 20.5557 24.8916 20.3262 24.8916 20.0625C24.8916 19.7988 24.9941 19.5742 25.1992 19.3887C25.4043 19.1934 25.6875 19.0957 26.0488 19.0957H28.4512C28.8125 19.0957 29.0957 19.1934 29.3008 19.3887C29.5059 19.5742 29.6084 19.7988 29.6084 20.0625C29.6084 20.3262 29.5059 20.5557 29.3008 20.751C29.0957 20.9365 28.8125 21.0293 28.4512 21.0293H26.0488ZM20.4238 19.1543C20.0625 19.1543 19.7793 19.0615 19.5742 18.876C19.3691 18.6807 19.2666 18.4512 19.2666 18.1875C19.2666 17.9238 19.3691 17.6992 19.5742 17.5137C19.7793 17.3184 20.0625 17.2207 20.4238 17.2207H28.4512C28.8125 17.2207 29.0957 17.3184 29.3008 17.5137C29.5059 17.6992 29.6084 17.9238 29.6084 18.1875C29.6084 18.4512 29.5059 18.6807 29.3008 18.876C29.0957 19.0615 28.8125 19.1543 28.4512 19.1543H20.4238ZM18.5488 17.2793C18.1875 17.2793 17.9043 17.1865 17.6992 17.001C17.4941 16.8057 17.3916 16.5762 17.3916 16.3125C17.3916 16.0488 17.4941 15.8242 17.6992 15.6387C17.9043 15.4434 18.1875 15.3457 18.5488 15.3457H30.3262C30.6875 15.3457 30.9707 15.4434 31.1758 15.6387C31.3809 15.8242 31.4834 16.0488 31.4834 16.3125C31.4834 16.5762 31.3809 16.8057 31.1758 17.001C30.9707 17.1865 30.6875 17.2793 30.3262 17.2793H18.5488ZM18.5488 15.4043C18.1875 15.4043 17.9043 15.3115 17.6992 15.126C17.4941 14.9307 17.3916 14.7012 17.3916 14.4375C17.3916 14.1738 17.4941 13.9492 17.6992 13.7637C17.9043 13.5684 18.1875 13.4707 18.5488 13.4707H20.9512C21.3125 13.4707 21.5957 13.5684 21.8008 13.7637C22.0059 13.9492 22.1084 14.1738 22.1084 14.4375C22.1084 14.7012 22.0059 14.9307 21.8008 15.126C21.5957 15.3115 21.3125 15.4043 20.9512 15.4043H18.5488ZM23.998 15.4043C23.7148 15.4043 23.4805 15.3115 23.2949 15.126C23.1094 14.9307 23.0166 14.7012 23.0166 14.4375C23.0166 14.1738 23.1094 13.9492 23.2949 13.7637C23.4805 13.5684 23.7148 13.4707 23.998 13.4707H24.877C25.1602 13.4707 25.3945 13.5684 25.5801 13.7637C25.7656 13.9492 25.8584 14.1738 25.8584 14.4375C25.8584 14.7012 25.7656 14.9307 25.5801 15.126C25.3945 15.3115 25.1602 15.4043 24.877 15.4043H23.998ZM27.9238 15.4043C27.5625 15.4043 27.2793 15.3115 27.0742 15.126C26.8691 14.9307 26.7666 14.7012 26.7666 14.4375C26.7666 14.1738 26.8691 13.9492 27.0742 13.7637C27.2793 13.5684 27.5625 13.4707 27.9238 13.4707H30.3262C30.6875 13.4707 30.9707 13.5684 31.1758 13.7637C31.3809 13.9492 31.4834 14.1738 31.4834 14.4375C31.4834 14.7012 31.3809 14.9307 31.1758 15.126C30.9707 15.3115 30.6875 15.4043 30.3262 15.4043H27.9238ZM18.5488 13.5293C18.1875 13.5293 17.9043 13.4365 17.6992 13.251C17.4941 13.0557 17.3916 12.8262 17.3916 12.5625C17.3916 12.2988 17.4941 12.0742 17.6992 11.8887C17.9043 11.6934 18.1875 11.5957 18.5488 11.5957H20.9512C21.3125 11.5957 21.5957 11.6934 21.8008 11.8887C22.0059 12.0742 22.1084 12.2988 22.1084 12.5625C22.1084 12.8262 22.0059 13.0557 21.8008 13.251C21.5957 13.4365 21.3125 13.5293 20.9512 13.5293H18.5488ZM27.9238 13.5293C27.5625 13.5293 27.2793 13.4365 27.0742 13.251C26.8691 13.0557 26.7666 12.8262 26.7666 12.5625C26.7666 12.2988 26.8691 12.0742 27.0742 11.8887C27.2793 11.6934 27.5625 11.5957 27.9238 11.5957H30.3262C30.6875 11.5957 30.9707 11.6934 31.1758 11.8887C31.3809 12.0742 31.4834 12.2988 31.4834 12.5625C31.4834 12.8262 31.3809 13.0557 31.1758 13.251C30.9707 13.4365 30.6875 13.5293 30.3262 13.5293H27.9238Z" fill="#33D77C"/>
</svg>
